<svg width="40" height="40" fill="none" xmlns="http://www.w3.org/2000/svg"><g filter="url(#prefix__a)"><path d="M20 32a12 12 0 1 0 0-24 12 12 0 0 0 0 24zm0 3c-8.284 0-15-6.715-15-15 0-8.284 6.716-15 15-15 8.285 0 15 6.716 15 15 0 8.285-6.715 15-15 15zm-4.665-13.245-3.747-1.168c-.81-.248-.814-.806.182-1.206l14.599-5.64c.848-.345 1.328.091 1.053 1.184l-2.486 11.73c-.174.836-.676 1.035-1.373.65l-3.827-2.832-1.784 1.722c-.183.177-.331.328-.613.366-.28.039-.511-.045-.681-.51l-1.305-4.306-.018.011v-.001z" fill="url(#prefix__b)"/></g><defs><linearGradient id="prefix__b" x1="5" y1="5" x2="35" y2="27.5" gradientUnits="userSpaceOnUse"><stop stop-color="#0024E0"/><stop offset="1" stop-color="#00B5CE"/></linearGradient><filter id="prefix__a" x="0" y="0" width="40" height="40" filterUnits="userSpaceOnUse" color-interpolation-filters="sRGB"><feFlood flood-opacity="0" result="BackgroundImageFix"/><feColorMatrix in="SourceAlpha" values="0 0 0 0 0 0 0 0 0 0 0 0 0 0 0 0 0 0 127 0"/><feOffset/><feGaussianBlur stdDeviation="2.5"/><feColorMatrix values="0 0 0 0 1 0 0 0 0 1 0 0 0 0 1 0 0 0 1 0"/><feBlend in2="BackgroundImageFix" result="effect1_dropShadow"/><feBlend in="SourceGraphic" in2="effect1_dropShadow" result="shape"/></filter></defs></svg>