<svg width="40" height="41" fill="none" xmlns="http://www.w3.org/2000/svg"><g filter="url(#prefix__a)"><path d="M30.627 9.381a14.827 14.827 0 0 0-10.57-4.38C11.825 5 5.124 11.7 5.124 19.938c0 2.632.69 5.206 1.996 7.467L5 35.15l7.92-2.078a14.94 14.94 0 0 0 7.136 1.82h.005C28.294 34.89 35 28.19 35 19.952a14.86 14.86 0 0 0-4.375-10.569l.002-.002zM20.06 32.37c-2.225 0-4.41-.598-6.323-1.732l-.455-.272-4.7 1.231 1.256-4.58-.294-.472a12.318 12.318 0 0 1-1.901-6.606 12.435 12.435 0 0 1 12.425-12.42c3.314 0 6.437 1.297 8.779 3.639a12.35 12.35 0 0 1 3.633 8.785c-.006 6.853-5.576 12.425-12.42 12.425v.002zm6.808-9.303c-.371-.189-2.208-1.09-2.55-1.214-.34-.124-.59-.188-.841.189-.247.37-.965 1.213-1.184 1.466-.218.247-.435.282-.806.094-.372-.189-1.58-.582-3.004-1.854-1.108-.99-1.86-2.214-2.078-2.585-.219-.372-.025-.577.166-.76.171-.166.37-.435.56-.654.188-.218.246-.371.37-.623.125-.247.064-.466-.03-.654-.094-.189-.842-2.026-1.147-2.774-.3-.731-.613-.63-.843-.643-.218-.01-.465-.01-.712-.01-.247 0-.654.093-.995.465-.34.37-1.308 1.277-1.308 3.114 0 1.838 1.336 3.61 1.525 3.863.188.247 2.632 4.021 6.376 5.636.89.383 1.585.612 2.126.79.895.282 1.707.24 2.35.147.717-.106 2.208-.901 2.52-1.773.314-.873.314-1.62.22-1.774-.09-.166-.336-.258-.713-.448l-.002.002z" fill="url(#prefix__b)"/></g><defs><linearGradient id="prefix__b" x1="-1" y1="22.5" x2="38.5" y2="20" gradientUnits="userSpaceOnUse"><stop stop-color="#0024E0"/><stop offset="1" stop-color="#00B5CE"/></linearGradient><filter id="prefix__a" x="0" y="0" width="40" height="40.149" filterUnits="userSpaceOnUse" color-interpolation-filters="sRGB"><feFlood flood-opacity="0" result="BackgroundImageFix"/><feColorMatrix in="SourceAlpha" values="0 0 0 0 0 0 0 0 0 0 0 0 0 0 0 0 0 0 127 0"/><feOffset/><feGaussianBlur stdDeviation="2.5"/><feColorMatrix values="0 0 0 0 1 0 0 0 0 1 0 0 0 0 1 0 0 0 1 0"/><feBlend in2="BackgroundImageFix" result="effect1_dropShadow"/><feBlend in="SourceGraphic" in2="effect1_dropShadow" result="shape"/></filter></defs></svg>